<?xml version="1.0" encoding="UTF-8"?>
<svg viewBox="0 0 119 44" version="1.1" xmlns="http://www.w3.org/2000/svg" xmlns:xlink="http://www.w3.org/1999/xlink">
  <title>Bridge International Academies logo</title>
  <g fill="#FFFFFF">
    <path d="M24.1870467,0.102020489 C23.0733841,0.284874011 22.980316,1.68177868 23.4218374,2.91924791 C24.1244229,4.88748964 23.9898685,8.34165683 23.9898685,8.34165683 C24.0927166,9.3694861 24.9293833,9.43316403 25.9742701,9.43316403 L27.9780741,9.43316403 C28.885725,9.43316403 29.650461,9.18903854 29.6496723,7.9008836 C29.6485681,6.11132505 29.5192192,5.6941303 29.6223828,3.73807881 C29.6704943,2.82204683 29.7376926,1.59997579 29.3308745,0.847389188 C29.0182287,0.26867383 28.3553944,0.0367385736 27.6184211,0.0097917388 C26.3462272,-0.03752562 24.1870467,0.102020489 24.1870467,0.102020489 L24.1870467,0.102020489 Z M35.9939211,1.26538592 C35.0857971,0.707682681 34.332734,2.51520579 33.8875845,3.17395966 C33.4422771,3.83046796 31.4468335,8.05679029 31.4468335,8.05679029 C30.9551499,8.96047164 31.7126297,9.64777633 32.3798809,10.2168678 L34.0581042,11.3491161 C34.6125694,11.6960566 34.879943,11.1009806 35.4799958,10.2348324 C36.4931764,8.7718438 37.1411829,8.91058792 38.1174518,7.2215988 C38.6083467,6.37261311 40.0357593,4.29578206 38.920677,3.63927375 C37.8054369,2.98292585 35.9939211,1.26538592 35.9939211,1.26538592 L35.9939211,1.26538592 Z M44.5426226,7.58489988 C43.6840297,6.29818852 42.2387922,7.68931887 41.5086018,8.10972157 C40.7784114,8.53012427 36.9014142,11.5932416 36.9014142,11.5932416 C36.0106418,12.2202367 36.4575266,13.2724464 36.8668686,13.8569361 L38.1515242,15.4767937 C38.5111772,16.0293642 38.8785597,16.0449228 39.6589123,15.2506328 C40.5664053,14.3272225 42.2962105,13.5860242 43.289831,13.1606491 C44.7970613,12.5156895 46.5276552,11.3662786 45.7569249,9.60783727 C45.435761,8.87802716 44.5426226,7.58489988 44.5426226,7.58489988 L44.5426226,7.58489988 Z M48.2361651,16.8228523 C47.982515,15.8766655 46.0941786,16.0024174 45.2590894,16.0864659 C44.4246311,16.1706747 39.6704275,17.1086812 39.6704275,17.1086812 C38.5797953,17.305329 38.6826434,17.7446586 38.6826434,18.0720306 L38.5797953,20.2313061 C38.5797953,20.8409782 38.9908724,21.2411708 39.5391856,21.2411708 L47.503924,21.1194289 C47.8250879,21.1194289 49.0968086,20.7708844 48.9941182,19.6737633 C48.9185595,18.8777088 48.2361651,16.8228523 48.2361651,16.8228523 L48.2361651,16.8228523 Z M2.57773282,31.3771906 C1.44372141,31.3215326 0.316966155,31.9345731 0.419814317,33.5715933 L0.316966155,36.7766627 C0.230996448,38.3439098 2.16634017,37.9438777 2.61196296,37.9782028 C2.61196296,37.9782028 4.29791567,37.7937453 5.93465268,37.7170751 C7.73575747,37.6330267 9.08177491,37.6256484 9.5614701,37.3807209 C9.95724624,37.1791008 9.92916806,36.0239157 9.9559843,35.4524182 C10.0078816,34.3543347 9.94273392,33.3977221 9.94273392,33.3977221 C10.0086703,32.4571492 9.7677974,32.1958612 9.2743786,32.1608944 C7.76793696,32.0531071 5.06501784,31.4997346 2.57773282,31.3771906 L2.57773282,31.3771906 Z M3.38900292,23.8763467 C2.0519768,23.7276579 1.09810741,24.028083 0.848085424,25.1774939 C0.848085424,25.1774939 0.203706982,27.1255255 0.0600034904,28.0162146 C-0.0310139787,28.5809753 -0.147901231,29.6447337 0.787827758,29.5834618 C3.39547036,29.4137609 7.44188304,29.8277476 7.44188304,29.8277476 C7.73055197,29.8489202 8.96646509,29.8291912 9.51446281,28.3124694 L10.0599367,25.8535707 C10.0728715,25.6535546 10.4052352,24.5678217 9.49726887,24.4109527 C7.501352,24.0665785 3.38900292,23.8763467 3.38900292,23.8763467 L3.38900292,23.8763467 Z M5.62295334,15.1983431 C4.42758007,14.571348 3.79377038,14.4138373 3.12573055,14.9713802 C3.12573055,14.9713802 1.01907838,17.1657828 0.890202693,17.7233257 C0.761327005,18.2808685 0.385268692,19.4997316 1.87530511,20.4051773 C3.36534153,21.3104627 7.20227206,22.0770039 7.20227206,22.0770039 C7.46444023,22.2019538 8.72653862,22.5472903 9.44584479,21.7292614 L11.2658787,19.3038859 C11.3485358,19.1218343 11.843532,18.1413224 10.7476943,17.7233257 L5.62295334,15.1983431 Z M19.221468,3.22464537 C18.7296266,1.60575011 18.2065522,1.06937978 16.079709,1.77801738 L13.1710936,2.83279348 C12.7500786,3.01484501 12.0277754,3.10707376 11.8993729,3.64264211 C11.8222368,4.26963721 12.2850535,4.2484647 12.6186791,4.68747355 C13.8856675,6.35464855 15.8044482,9.65114468 15.8044482,9.65114468 C15.9421575,9.90986637 16.2913996,11.1924074 18.2065522,11.0486909 C19.4268488,10.9572642 20.8580473,10.3392514 21.4437455,10.0300043 C22.0294437,9.72043654 22.8566458,9.62499983 22.0859155,8.39715447 C22.0859155,8.39715447 19.7609476,5.0010513 19.221468,3.22464537 L19.221468,3.22464537 Z M14.395807,12.1156573 C15.0807253,12.8470714 14.6731184,13.5075896 14.5327275,13.6480981 L12.2377307,15.913557 C11.621115,16.8180404 10.6931154,16.122395 10.4907316,15.9117926 L5.2838068,11.4970029 C4.42758007,10.8267003 4.83786852,9.74818536 4.97841716,9.60783727 L7.17734874,7.28688072 C8.3326554,6.08935055 9.81275403,6.57744113 10.6781298,7.78154762 L14.395807,12.1156573 Z" id="Fill-1" fill-opacity="0.5"/>
    <path d="M59.1012181,16 C57.6001175,16 56.3847445,17.2004427 56.3847445,18.6804148 C56.3847445,20.1605434 57.6001175,21.360986 59.1012181,21.360986 C60.6005746,21.360986 61.8159475,20.1605434 61.8159475,18.6804148 C61.8159475,17.2004427 60.6005746,16 59.1012181,16 L59.1012181,16 Z M109.280187,27.8078483 L113.807749,27.8078483 C113.807749,27.8078483 114.049714,26.1309849 113.368693,25.2587467 C112.890789,24.6471 112.49058,24.4813544 111.819231,24.4176543 C111.627054,24.3993424 111.129964,24.400751 110.702324,24.5744787 C109.107514,25.2205579 109.280187,27.8078483 109.280187,27.8078483 L109.280187,27.8078483 Z M119,30.2301758 L109.197894,30.2301758 C109.197894,30.2301758 108.923583,33.4701189 111.265534,34.3367227 C112.274302,34.7101589 113.936818,34.3079246 114.76324,33.211875 C115.208639,32.622453 115.279674,31.9237859 115.279674,31.9237859 L118.875688,31.9444454 C118.636894,33.567156 117.694247,34.6218865 116.441771,35.6335764 C115.189136,36.6460488 109.391656,38.5140127 105.693846,34.7549212 C104.463885,33.5042384 103.994227,31.7669615 103.994227,29.8000823 C103.994227,27.5856021 104.71251,25.762244 106.149076,24.3306339 C107.587069,22.8993369 109.465863,22.1829841 111.78847,22.1829841 C113.886713,22.1829841 115.615349,22.8179509 116.969622,24.0869456 C118.323736,25.3575054 119,27.0223175 119,29.0848251 L119,30.2301758 Z M90.3086351,27.3824503 C90.3086351,28.3750458 90.3265525,31.2467175 91.9356334,31.2467175 C93.5432873,31.2467175 93.8532748,29.9323345 93.8532748,27.4979557 C93.8532748,25.4761411 93.4706661,23.7030231 92.2407055,23.7994341 C90.7752812,23.914157 90.3086351,25.3775389 90.3086351,27.3824503 L90.3086351,27.3824503 Z M89.5484918,39.7271328 C86.6561736,40.2713231 88.5187942,41.5775675 89.1208518,41.7115413 C89.7229093,41.8444195 91.0350048,42.0547708 91.8566698,42.0738652 C92.6765907,42.0929596 93.1833529,42.1026633 93.3753708,42.1026633 C93.3753708,42.1026633 97.1039416,41.8031004 97.1603895,40.8504154 C97.2637715,39.1170513 91.756459,39.312221 89.5484918,39.7271328 L89.5484918,39.7271328 Z M86.6238271,38.5393676 L86.1784282,38.3099218 C85.7231985,37.9850041 85.394025,37.8225452 85.1114687,37.4545869 C84.3495812,36.4659042 84.5660175,35.4448236 84.6257951,34.9707505 C84.6789132,34.5556822 85.3229895,33.4421033 85.9524782,32.9362584 C86.5803813,32.4304134 87.0773127,32.082332 87.4454922,31.8912316 L87.0516257,31.5469064 C86.5624639,31.0315143 86.1928573,30.4445964 85.9396347,29.7858398 C85.6860951,29.1277092 85.5601974,28.4547101 85.5601974,27.7671554 C85.5601974,26.9276281 85.7393717,26.1348977 86.0961348,25.3902163 C86.4527394,24.6453784 87.1049023,23.9299646 88.0475498,23.2425664 C88.9900386,22.5550117 90.3249669,22.2109996 92.0534445,22.2109996 C92.7685563,22.2109996 93.4544929,22.2859686 94.1082415,22.4324633 C94.7635757,22.5805231 96.0790009,22.9836965 96.7164176,23.4250588 C96.7164176,23.4250588 97.555683,22.565498 98.9148712,22.1829841 C99.4022889,22.0460366 100.33685,21.9792062 100.929235,22.0900163 C101.703966,22.2341633 102.754752,22.7016629 103.08234,23.5341472 C103.697241,25.1027048 103.201737,26.2704366 102.393074,26.7460748 C101.055133,27.5330143 99.9348966,26.4997258 99.8105844,26.371543 C99.4959987,26.0466252 99.4894976,25.5423454 99.5169288,25.0468302 C99.5522879,24.3666315 100.181935,23.7596802 100.241554,23.8909933 C100.15609,23.7038056 99.2602179,23.3469596 98.5711101,23.7205523 C98.1997594,23.9221391 97.7800474,24.2772635 97.7800474,24.4685205 C97.7800474,24.5823043 99.391031,26.5396362 98.4000224,29.5920787 C97.3313187,32.8805403 92.8056597,33.1600697 91.5338389,33.1481749 C90.5734326,33.1394102 89.9488593,33.0174878 89.5840096,32.9220158 L88.9578507,32.7498533 C88.7851773,32.7116645 88.476934,32.7927374 88.3106031,33.019992 C87.2775757,34.4267167 87.9311657,35.4200948 88.5172086,35.6844426 C89.7229093,36.2286328 91.1044546,35.6343589 96.1628798,35.778506 C101.222891,35.922653 100.83394,39.4857922 100.672524,40.3070077 C100.519195,41.0892518 99.7864831,43.2043473 96.3339676,43.6408577 C87.4841812,44.7591318 85.5586117,42.947825 85.0615218,42.5183577 C84.5626877,42.0882643 83.7315089,40.5110986 85.0921242,39.4267874 C85.5554405,39.0572639 85.9331337,38.8876055 86.1251516,38.7824298 C86.317328,38.6772542 86.4833417,38.5960247 86.6238271,38.5393676 L86.6238271,38.5393676 Z M71.0952767,29.4989543 C71.0596004,33.7488657 72.6090622,34.0874 73.5727983,34.0874 C74.5378029,34.0874 74.9752738,33.3942108 75.2901767,32.8597243 C75.7436622,32.0926618 75.8291268,30.9606146 75.8291268,29.4989543 C75.8291268,28.2651747 75.8097823,27.1785159 75.5370567,26.405819 C75.2400713,25.5655091 74.8462048,24.5704094 73.161173,24.6046854 C72.3250788,24.6214321 71.1290503,25.3352808 71.0952767,29.4989543 L71.0952767,29.4989543 Z M75.8453001,24.6341096 L75.8453001,20.5388315 C75.8453001,19.9852505 75.8549723,19.3192944 75.7775943,19.0644938 C75.5708303,18.3849212 73.6695208,18.5459714 73.6695208,18.5459714 L73.6695208,16.2548006 L80.8311041,16.2548006 L80.8311041,32.6359129 C80.8311041,33.171182 80.9165687,33.5336625 81.0860708,33.724763 C81.255573,33.9152374 81.584905,34.0108659 82.0739083,34.0108659 L83.0422426,34.0108659 L83.0422426,36.3305218 L76.1197698,36.3305218 L76.1197698,34.3597298 C76.1197698,34.3597298 75.0543959,36.8739295 71.7827989,36.8739295 C71.2920514,36.8739295 65.8608484,36.8739295 65.8608484,29.7435817 C65.8608484,26.0999956 66.3482661,24.6636902 67.581398,23.5850134 C68.8145298,22.5064932 70.226836,22.1257009 71.8633481,22.1257009 C72.4654056,22.1257009 73.2724831,22.1537164 74.1069916,22.4801993 C74.8462048,22.7692759 75.6047624,23.5850134 75.8453001,24.6341096 L75.8453001,24.6341096 Z M64.3032999,36.8739295 L64.3032999,34.0227607 L62.7714384,34.0227607 C62.1614528,34.0227607 61.8289496,33.7845503 61.7709161,33.3067209 L61.7709161,33.1354974 L61.7709161,32.6191662 L61.7709161,22.6126079 L54.3155185,22.6126079 L54.3155185,24.9607489 L55.6052568,24.9607489 C55.9182569,24.9607489 56.1491223,24.9990942 56.2961087,25.0756283 C56.4429366,25.1520059 56.5655045,25.2754934 56.6639711,25.4474995 L56.7527655,25.6769452 L56.7527655,25.8195271 L56.7527655,26.3635609 L56.7527655,32.1483798 L56.7527655,32.6191662 C56.7527655,33.1736862 56.6657153,33.5457139 56.4897122,33.7368143 C56.3154532,33.9271322 55.976449,34.0227607 55.4712724,34.0227607 L54.2267241,34.0227607 L54.2267241,36.8739295 L64.3032999,36.8739295 Z M38.8651389,25.0181886 L38.8651389,22.4634525 L45.9371351,22.4634525 L45.9371351,24.7026616 L46.3018263,24.1299862 C47.2573171,22.7941612 48.4290858,22.1257009 49.8172907,22.1257009 C49.9657041,22.1257009 50.7534371,22.133683 51.5524279,22.6126079 C52.8096611,23.3644888 52.9614043,24.7608838 52.9935923,25.1615531 C53.0857164,26.3557353 52.0866212,29.0910856 49.090921,27.885165 C47.8076837,27.3688338 48.0918257,25.94771 48.1790345,25.5223119 C48.3485366,24.688419 49.6590464,24.3163914 49.6590464,24.3163914 C48.7633331,23.3477421 46.8215905,24.8413307 46.4744996,25.7264028 C46.0628743,26.7731513 46.1226519,27.8364899 46.1226519,28.7533339 L46.1226519,32.9220158 C46.1226519,33.4946912 46.0356017,33.6882958 46.2323764,33.8690665 C46.4308952,34.0514023 46.8490216,34.1415529 47.4897681,34.1415529 L48.5050367,34.1415529 L48.5050367,36.4324107 L38.8651389,36.4324107 L38.8651389,34.1415529 L40.0663999,34.1415529 C40.5554032,34.1415529 40.8896506,34.0410726 41.0681907,33.8412075 C41.247048,33.6404033 41.3366351,33.2732275 41.3366351,32.7379584 L41.3366351,31.7071741 L41.3366351,26.392359 C41.3366351,25.8395606 41.2478408,25.4714457 41.0712034,25.2898925 C40.8944074,25.1089652 40.5546104,25.0181886 40.0518123,25.0181886 L38.8651389,25.0181886 Z M25.4362583,33.909603 L27.1894715,33.909603 C28.3935867,33.909603 31.3166657,33.8930128 31.3166657,30.6947017 C31.3166657,27.4963906 28.412614,27.4095268 27.020128,27.4095268 L25.4362583,27.4095268 L25.4362583,33.909603 Z M25.4362583,24.940872 C25.4362583,24.940872 25.2764285,25.0055112 27.2157927,24.940872 C29.1549984,24.8763893 30.7157181,24.2645861 30.7157181,21.8142431 C30.7157181,20.0043449 29.492417,19.0995524 27.0462906,19.0995524 L25.4362583,19.0995524 L25.4362583,24.940872 Z M17,19.0995524 L17,16.6858331 L28.7761953,16.6858331 C35.9038465,16.6858331 36.3516239,19.7302934 36.3516239,21.1381137 C36.3516239,24.6389614 33.3592535,25.4252748 32.3246404,25.8458211 L31.929664,25.9829251 L32.3810883,26.0927961 C33.9427593,26.4607545 37.2362378,27.3919975 37.2362378,30.972666 C37.2362378,35.6166731 33.1413901,36.3042278 31.4856922,36.4324107 L30.1028784,36.4324107 L17,36.4324107 L17,34.0186914 L18.2215569,34.0186914 L18.5347156,34.0186914 C19.0841308,34.0186914 19.4351857,33.9319841 19.5869289,33.7582564 C19.7386722,33.5846852 19.8144645,33.1966934 19.8144645,32.5928723 L19.8144645,31.4681812 L19.8144645,20.525528 C19.8144645,19.9040211 19.7439047,19.5105514 19.6031022,19.3463709 C19.461824,19.1807818 19.1088664,19.0995524 18.5443879,19.0995524 L18.2340832,19.0995524 L17,19.0995524 Z" id="Fill-3"/>
  </g>
</svg>