<?xml version="1.0" encoding="UTF-8"?>
<svg viewBox="0 0 40 28" version="1.1" xmlns="http://www.w3.org/2000/svg" xmlns:xlink="http://www.w3.org/1999/xlink">
  <title>Bridge International Academies logo</title>
  <g fill="#FFFFFF">
    <path d="M11.6922788,8.95437978 C12.2387022,9.47851978 11.9137167,9.95187474 11.8014235,10.0524866 L9.9701005,11.6760111 C9.47824946,12.32376 8.73767432,11.8254916 8.57605613,11.6744141 L4.42085935,8.51104869 C3.73765517,8.03066687 4.06508943,7.25803148 4.17738259,7.1574196 L5.93209441,5.4942892 C6.85387784,4.63637326 8.03488005,4.98611933 8.72578034,5.84882631 L11.6922788,8.95437978 Z" id="Fill-1" opacity="0.5"/>
    <path d="M14.5814491,2.27977193 C14.2069595,1.09779427 13.8091059,0.706296718 12.1893214,1.22373738 L9.97475924,1.99371512 C9.65434029,2.12649234 9.10428777,2.19385726 9.00649323,2.58502938 C8.94774976,3.04259012 9.3002106,3.0272947 9.55420937,3.34784756 C10.5188039,4.56497213 11.979714,6.97155936 11.979714,6.97155936 C12.0848515,7.16063673 12.3505322,8.09691144 13.8091059,7.99179613 C14.7379871,7.92508208 15.8274115,7.47403004 16.2733279,7.24817858 C16.7192443,7.02232712 17.3490678,6.95235873 16.7623006,6.05611245 C16.7623006,6.05611245 14.9923197,3.57662793 14.5814491,2.27977193" id="Fill-3" opacity="0.5"/>
    <path d="M4.64316538,11.447815 C3.74877324,10.9544783 3.27469296,10.8307059 2.77536773,11.2693442 C2.77536773,11.2693442 1.20001795,12.9954965 1.10330033,13.4341348 C1.00691056,13.8724225 0.725937667,14.8313959 1.83999356,15.5435258 C2.95470516,16.2556556 5.82443182,16.8583889 5.82443182,16.8583889 C6.02016206,16.9569159 6.9640605,17.2286543 7.50240063,16.5848973 L8.8630045,14.6771187 C8.92529721,14.5340616 9.29511917,13.7626752 8.47547829,13.4341348 L4.64316538,11.447815 Z" id="Fill-5" opacity="0.5"/>
    <path d="M2.67645187,18.0236088 C1.62052181,17.9241945 0.867176298,18.124809 0.669838549,18.8924424 C0.669838549,18.8924424 0.16091488,20.1931626 0.0473591225,20.7878626 C-0.0246518456,21.1649822 -0.116396589,21.8754672 0.622062041,21.8343918 C2.68164497,21.720988 5.87713168,21.9975027 5.87713168,21.9975027 C6.10528182,22.0117898 7.08158436,21.9986933 7.51434259,20.9857983 L7.94467736,19.3439739 C7.95506356,19.2103301 8.21748815,18.4852604 7.50084053,18.3804884 C5.92421578,18.1507044 2.67645187,18.0236088 2.67645187,18.0236088" id="Fill-7" opacity="0.5"/>
    <path d="M1.63989622,23.002607 C0.818253097,22.9605635 0.00200925272,23.4233785 0.0763287311,24.6584488 L0.00200925272,27.0767918 C-0.0602412505,28.2593918 1.3423007,27.9576875 1.66466938,27.9835864 C1.66466938,27.9835864 2.8861767,27.8443382 4.07211231,27.7864863 C5.37714965,27.7229166 6.35219579,27.717535 6.69997284,27.5325435 C6.9864522,27.3805142 6.96644311,26.5086998 6.98549938,26.0775015 C7.02297673,25.2490761 6.97597125,24.527273 6.97597125,24.527273 C7.02361194,23.8175785 6.84924701,23.6204785 6.49162422,23.593907 C5.40033478,23.5125107 3.44198477,23.0951027 1.63989622,23.002607" id="Fill-9" opacity="0.5"/>
    <path d="M37.9622039,11.5915126 C37.6299621,10.6889917 36.2438058,11.0396815 35.6354901,11.2226956 C35.0271744,11.4060583 31.6319084,12.9015449 31.6319084,12.9015449 C30.8503232,13.2264385 30.9932961,13.6471966 31.0433366,13.9703472 L31.29422,16.1117863 C31.386812,16.7127697 31.7534353,17.057882 32.1612485,16.991997 L38.0690932,15.9162227 C38.3080622,15.8771797 39.2013024,15.3811244 38.9585889,14.3116249 C38.7815748,13.5356451 37.9622039,11.5915126 37.9622039,11.5915126" id="Fill-11" opacity="0.5"/>
    <path d="M34.8044675,6.41155432 C34.0883555,5.41913892 32.883036,6.49199256 32.2738275,6.8161518 C31.664619,7.14031103 28.4309645,9.5025828 28.4309645,9.5025828 C27.6875956,9.98624351 28.060696,10.797501 28.4019377,11.2485051 L29.4734508,12.4977041 C29.7736302,12.9236143 30.3587677,13.2869614 31.0097464,12.6740495 C31.7665667,11.9621367 33.2097643,11.3904752 34.0384436,11.0625347 C35.2954449,10.5651238 36.4600561,9.32761244 35.817573,7.97150619 C35.5492523,7.40878226 34.8044675,6.41155432 34.8044675,6.41155432" id="Fill-13" opacity="0.5"/>
    <path d="M27.3046377,1.08114118 C26.6666076,0.651385739 26.1378924,2.04439798 25.8250359,2.55213463 C25.5121794,3.05781009 24.1104838,6.31515709 24.1104838,6.31515709 C23.7652947,7.01149145 24.2973971,7.54121398 24.766066,7.97990119 L25.9448205,8.8524662 C26.3343515,9.11973217 26.6598331,9.05686627 27.0813887,8.38904486 C27.793322,7.26158095 28.248442,7.36841863 28.9342013,6.06678524 C29.2790824,5.41270502 30.5298925,3.68853031 29.7465196,3.18251131 C28.9634546,2.67683585 27.3046377,1.08114118 27.3046377,1.08114118" id="Fill-15" opacity="0.5"/>
    <path d="M18.7800589,0.0757205837 C17.9213692,0.211341592 17.849361,1.24801535 18.1901323,2.1662688 C18.7317153,3.6270063 18.6282669,6.19024335 18.6282669,6.19024335 C18.7073745,6.95302882 19.352744,7 20.1583571,7 L21.7036604,7 C22.4037967,7 22.9937232,6.81906173 22.9930471,5.86309901 C22.9916948,4.53500548 22.8919651,4.22539265 22.9717489,2.77391708 C23.0092743,2.09415812 23.0606605,1.18748207 22.7469345,0.62878967 C22.5058929,0.199433406 21.995074,0.0274262735 21.4261076,0.0072485138 C20.4453758,-0.0278144785 18.7800589,0.0757205837 18.7800589,0.0757205837" id="Fill-17" opacity="0.5"/>
    <path d="M19.2534024,26.0836582 L20.553078,26.0836582 C21.4454413,26.0836582 23.612656,26.0711029 23.612656,23.6416441 C23.612656,21.2118549 21.4594865,21.1461045 20.4276506,21.1461045 L19.2534024,21.1461045 L19.2534024,26.0836582 Z M19.2534024,19.2707328 C19.2534024,19.2707328 19.135161,19.3196326 20.5723494,19.2707328 C22.0098643,19.2218331 23.1668009,18.756955 23.1668009,16.8957907 C23.1668009,15.5206502 22.2600658,14.8334104 20.446922,14.8334104 L19.2534024,14.8334104 L19.2534024,19.2707328 Z M13,14.8334104 L13,13 L21.729286,13 C27.0129129,13 27.3444461,15.3124959 27.3444461,16.3820128 C27.3444461,19.0414326 25.1262766,19.6388026 24.3596673,19.958303 L24.0666768,20.0623802 L24.4014764,20.145642 C25.5590663,20.4251635 28,21.132558 28,23.8524417 C28,27.380493 24.9649195,27.9025309 23.7377567,28 L22.7131067,28 L13,28 L13,26.1665896 L13.9054287,26.1665896 L14.1379919,26.1665896 C14.5449775,26.1665896 14.8053045,26.1005088 14.9179932,25.9686777 C15.0300285,25.8368466 15.0862095,25.5421265 15.0862095,25.0835261 L15.0862095,24.229102 L15.0862095,15.9164739 C15.0862095,15.4446574 15.0339481,15.145642 14.929752,15.0210798 C14.8249026,14.8951959 14.5635956,14.8334104 14.1448512,14.8334104 L13.914901,14.8334104 L13,14.8334104 Z" id="Fill-19"/>
    <path d="M39.5501124,24.6973073 C39.3992271,23.9541015 37.947838,23.9796761 37.3049791,24.012954 C36.6621203,24.04654 32.980048,24.5922355 32.980048,24.5922355 C32.1362327,24.7028536 32.194705,25.0473412 32.1795828,25.3012391 L32.0018137,26.9709871 C31.9739218,27.4436562 32.2706517,27.769348 32.690039,27.7903007 L38.7919893,27.9995199 C39.0383121,28.011845 40.0276359,27.7903007 39.9994079,26.9358605 C39.9779009,26.315906 39.5501124,24.6973073 39.5501124,24.6973073" id="Fill-21" opacity="0.5"/>
    <path d="M39.9562339,18.9721882 C39.8865929,17.6756602 38.303903,18.0546243 37.620633,18.0426858 C36.9370345,18.0310883 32.9668415,18.5659359 32.9668415,18.5659359 C32.0861459,18.6338152 31.9629602,20.0661017 32.007964,20.6630298 L32.2379107,22.3835474 C32.2615623,22.9364734 32.5118757,23.106001 33.3843589,22.8702996 C34.3984236,22.5960538 35.9121295,22.8082191 36.7816563,22.9299924 C38.1005645,23.1148696 39.7831169,23.0326641 39.9693737,21.4346021 C40.0452561,20.7701358 39.9562339,18.9721882 39.9562339,18.9721882" id="Fill-23" opacity="0.5"/>
  </g>
</svg>