<svg version="1" xmlns="http://www.w3.org/2000/svg" width="700pt" height="700pt" viewBox="0 0 700.000000 700.000000"><path d="M0 350v350h700v-700h-700v350zm374.2-182.4c6.5 3.8 7.1 6.6 7.2 35.3.1 14.1-.2 27.1-.7 28.8-.5 2.2-1.8 3.8-3.8 4.9-4 2-17.5 2.8-27.3 1.6-11.9-1.6-11.9-1.6-12.7-21.6-.6-12.8-1.3-18.7-3.3-26.5-3.1-12-3.2-15.6-.6-19.8 2.2-3.7 3.6-4.1 13.5-4.7 14.1-.7 24.2 0 27.7 2zm68.2 15.6c5.7 4.6 12.5 9.9 15.2 11.8 5.6 4 6.3 6.3 3.9 12.3-3 7.4-15.4 25.3-21.8 31.4-3.4 3.2-8.3 8.2-10.8 11.1-2.7 3.1-5.4 5.2-6.6 5.2-3 0-19.4-11-23.1-15.6-1.8-2.1-3.2-4.9-3.2-6.2 0-5 21.8-47 28.5-55.1 4.1-4.8 6.2-4.1 17.9 5.1zm-152-5.1c1.5.7 3.5 3.3 5 6.3 1.3 2.8 4.7 9.8 7.4 15.6 2.8 5.8 8.1 15.2 11.8 21 3.6 5.8 7.3 11.9 8 13.7 1.3 2.9 1.2 3.4-.6 5.1-2.5 2.3-17.6 8.5-24.8 10.2-7 1.6-15.5.9-19-1.7-1.5-1.1-5.1-6-8.1-10.9-10-16.6-24.1-37.2-26.6-38.8-2.7-1.8-3.3-5.7-1.2-7.5 1.3-1 20.7-8.2 32.7-12.1 6.5-2.1 11.9-2.4 15.4-.9zm-69.4 41.1c3.3 1.7 8.8 7.2 20.3 20.3 20.2 22.9 20.8 23.7 20.9 27.6.1 2.9-1.2 4.5-11.6 14.6-12.2 11.9-14 12.8-18.6 9.6-4.1-2.8-44.3-36.4-46.2-38.5-1.1-1.3-1.8-3.7-1.8-6.4 0-4.2.4-4.8 10.3-15 9.8-10.3 15.5-14.3 20.2-14.4 1.2 0 4.1 1 6.5 2.2zm284.8 9.3c5 5.6 11.3 17.1 11.9 21.5.8 5.5-1.9 11.9-7 17.1-3 3-8.5 6.3-19.2 11.4-8.2 4-17.3 9-20.2 11.3-5.9 4.7-9.2 5.9-12.2 4.2-3.7-1.9-16.9-18.7-18.2-23.1-1.1-3.4-1-4.6.2-6.8 1.5-2.7 15.9-13.8 33.8-26.3 20.5-14.1 25.4-15.6 30.9-9.3zm-298 65.2c27.5 13.2 29.1 14.4 27.8 19.6-.8 3.3-15 21.8-18.4 23.9-4.1 2.7-9.7 2.2-26.5-2.1-31.1-8-38.7-12.8-38.7-24.6 0-6.3 2.8-10.9 13.3-22 10.2-10.7 9.2-10.8 42.5 5.2zm329.8-8.2c2.8 1.1 4 2.6 6.1 7.2 4.9 11.1 9.3 24.4 9.3 28.3 0 4.2-3.6 9.5-7.5 11-4.3 1.6-59.8 11.1-63.3 10.8-5.3-.4-6.7-3.7-8.7-20.1-1.7-13.3-1.7-13.8.1-15.9 2.2-2.5 7-4.7 30-13.9 21.8-8.7 27.8-10 34-7.4zm-136.3 18.3c21.2 5.9 30.7 17.4 29.5 35.9-1 15.1-9.6 25.8-26.2 32.5l-7.9 3.2 9.4 3.1c11.5 3.8 17.5 7.2 22.9 13.1 5.8 6.3 8.1 12.1 8.7 21.8 1.2 18-6.3 32.3-20.7 39.6-13.1 6.6-10.3 6.4-78.2 6.8l-61.8.3v-20.1h9.4c8.7 0 9.6-.2 11-2.2 1.4-2 1.6-9.1 1.6-57.8 0-46.4-.2-55.9-1.4-57.6-1.2-1.6-2.9-2-11-2.2l-9.6-.4v-18.9l58.3.3c56.3.4 58.5.4 66 2.6zm-214.8 50.2c21.6 1.5 33.8 3.1 36.3 4.6 2.9 1.9 2.9 6.2.1 18.6-3.9 17-7.7 21.3-18.9 21.2-21.2-.2-55.7-1.8-56.7-2.7-2.3-1.7-1.4-11 2.2-23.2 3.9-13.4 5.4-16.1 9.8-18 3.9-1.7 8.9-1.8 27.2-.5zm372.4.1c5.1 1.8 6.2 5.3 6.4 20.3.1 8.6-.3 14.4-1.1 16.8-3 8.5-12.4 12.6-26.3 11.4-19-1.5-36.9-1.8-43.2-.7-9.9 1.7-10.1 1.6-12.1-13.3-2.1-14.7-1.2-21.8 3.2-26.7 2.6-2.9 3.1-3 22.7-5.4 30.7-3.7 44.7-4.4 50.4-2.4zm-358.9 62c17.3 2.3 21.7 3.2 22.8 4.6 2.1 2.8 1.3 34.6-.9 36.8-1.8 1.8-9.3 2.6-42.9 4.6-11.9.7-22.8.9-24.3.5-1.5-.3-3.7-1.6-4.9-2.8-2-2-2.1-2.6-1.4-19.2.8-20.2 1.7-22.9 8.6-26.4 5.4-2.8 9.6-2.6 43 1.9zm350.6 3.2c3.8 1.9 4.8 4.3 7.4 17.4 2.6 13.1 2.6 16.5-.2 19.8-4.3 4.9-6.5 5.1-42.3 3.8l-32.9-1.3-2.5-2.4-2.5-2.5 1.1-13c.5-7.2 1.5-13.7 2.2-14.5 1.6-1.9 7.1-3.1 30.1-6.6 21.5-3.2 34.3-3.5 39.6-.7zM344 343.5v23.7l12.3-.4c9.4-.3 13.2-.9 16.7-2.4 5.5-2.5 10.5-8 11.9-13.1 2.5-8.9.4-20.1-4.5-24.5-4.9-4.4-11.5-6.2-24.1-6.6l-12.3-.4v23.7zM344 412.9v26.3l14.8-.4c14.2-.3 14.9-.4 20.2-3.3 3.9-2.2 6.3-4.4 8.5-7.9 2.8-4.6 3-5.7 3-14 0-8.2-.3-9.6-2.8-13.9-5.2-8.8-12.2-11.7-30.4-12.4l-13.3-.6v26.2z"/></svg>